# xmcd
#
# Track frame offsets: 
#        150
#        17248
#        30152
#        49543
#        61674
#        72868
#        89184
#        100962
#        112440
#        126206
#        137482
#        145152
#        171044
#        180234
#
# Disc length: 2608 seconds
#
# Revision: 0
# Processed by: cddbd v1.4PL0 Copyright (c) Steve Scherf et al.
# Submitted via: ExactAudioCopy v0.90b4
#
DISCID=bd0a2e0e
DTITLE=Daniel Larson Band - Roadkill Blues
DYEAR=2001
DGENRE=Blues
TTITLE0=Walkin' Blues
TTITLE1=Come On In My Kitchen
TTITLE2=Long Distance Call
TTITLE3=Keep Your Lamp Trimmed And Burnin'
TTITLE4=Me and The Devil Blues
TTITLE5=I'm In The Mood
TTITLE6=When I Lay My Burden Down
TTITLE7=Country Boy
TTITLE8=Fredericks Valley Creek
TTITLE9=Up Jumped The Devil
TTITLE10=Out On The Highway
TTITLE11=Red House
TTITLE12=Let Me Down Easy
TTITLE13=Crucial Moment
EXTD=
EXTT0=
EXTT1=
EXTT2=
EXTT3=
EXTT4=
EXTT5=
EXTT6=
EXTT7=
EXTT8=
EXTT9=
EXTT10=
EXTT11=
EXTT12=
EXTT13=
PLAYORDER=
